<?xml version="1.0" encoding="utf-8"?>
<!-- Generator: Adobe Illustrator 25.2.1, SVG Export Plug-In . SVG Version: 6.00 Build 0)  -->
<svg version="1.1" id="Layer_1" xmlns="http://www.w3.org/2000/svg" xmlns:xlink="http://www.w3.org/1999/xlink" x="0px" y="0px"
	 viewBox="0 0 16 16" style="enable-background:new 0 0 16 16;" xml:space="preserve">
<style type="text/css">
	.st0{fill:#FFFFFF;}
</style>
<path class="st0" d="M0.1,5.6C0.3,4.6,1.1,4,2,4h12c0.9,0,1.7,0.6,1.9,1.6L8,10.4L0.1,5.6z M0,6.7v7.1l5.8-3.6L0,6.7z M6.8,10.8
	l-6.6,4C0.5,15.6,1.2,16,2,16h12c0.8,0,1.5-0.4,1.8-1.1l-6.6-4L8,11.6L6.8,10.8L6.8,10.8z M10.2,10.2l5.8,3.6V6.7L10.2,10.2
	L10.2,10.2z"/>
</svg>
